<svg id="svg" version="1.1" xmlns="http://www.w3.org/2000/svg" xmlns:xlink="http://www.w3.org/1999/xlink" width="400" height="400" viewBox="0, 0, 400,400"><g id="svgg"><path id="path0" d="M57.058 56.841 C 54.292 60.073,55.403 67.204,58.624 66.883 C 67.769 65.971,93.899 65.783,96.200 66.612 C 97.080 66.929,97.843 67.191,97.895 67.194 C 98.637 67.241,100.000 63.664,100.000 61.669 C 100.000 57.376,98.211 55.137,95.498 56.037 C 94.136 56.489,90.781 56.582,78.535 56.510 C 64.778 56.429,62.241 56.281,59.358 55.396 C 58.700 55.193,58.198 55.508,57.058 56.841 M154.200 58.042 C 133.412 58.477,135.200 58.225,135.200 60.721 C 135.200 61.791,135.012 63.732,134.782 65.033 C 134.046 69.199,133.523 71.773,133.204 72.800 C 133.033 73.350,132.661 74.610,132.377 75.600 C 132.093 76.590,131.712 77.571,131.530 77.780 C 131.349 77.989,131.200 78.394,131.200 78.680 C 131.200 79.225,128.798 84.262,127.232 87.000 C 124.525 91.734,119.622 97.516,114.394 102.140 C 113.047 103.331,112.741 103.720,113.600 103.147 C 115.772 101.697,122.001 95.272,124.000 92.419 C 127.509 87.410,121.644 88.113,168.000 87.140 C 210.221 86.253,280.592 87.713,325.200 90.402 C 344.775 91.582,354.601 92.217,362.200 92.792 C 365.060 93.009,369.865 93.357,372.877 93.567 C 375.889 93.776,378.712 94.139,379.151 94.374 C 379.589 94.608,380.319 94.800,380.774 94.800 C 381.228 94.800,381.600 94.980,381.600 95.200 C 381.600 95.450,383.958 95.595,387.900 95.587 C 394.421 95.574,395.600 95.309,395.600 93.856 C 395.600 93.495,395.780 93.200,396.000 93.200 C 396.222 93.200,396.400 92.141,396.400 90.824 C 396.400 89.517,396.580 88.336,396.800 88.200 C 397.027 88.060,397.200 86.063,397.200 83.576 C 397.200 80.925,397.358 79.200,397.600 79.200 C 397.848 79.200,398.000 77.000,398.000 73.400 C 398.000 69.800,397.848 67.600,397.600 67.600 C 397.380 67.600,397.200 67.313,397.200 66.963 C 397.200 66.612,396.840 66.231,396.400 66.116 C 395.960 66.001,395.600 65.748,395.600 65.553 C 395.600 65.359,394.261 65.200,392.624 65.200 C 390.987 65.200,389.532 65.013,389.390 64.784 C 389.221 64.511,387.774 64.462,385.183 64.640 C 381.470 64.896,376.417 64.592,367.200 63.559 C 365.110 63.325,362.365 63.042,361.100 62.931 C 359.835 62.820,358.800 62.560,358.800 62.354 C 358.800 62.127,356.693 62.085,353.431 62.249 C 350.398 62.401,345.393 62.324,341.931 62.072 C 295.729 58.703,210.286 56.869,154.200 58.042 M10.800 64.800 C 10.800 65.033,9.467 65.200,7.600 65.200 C 5.840 65.200,4.400 65.359,4.400 65.553 C 4.400 65.748,4.040 66.001,3.600 66.116 C 3.160 66.231,2.800 66.612,2.800 66.963 C 2.800 67.313,2.620 67.600,2.400 67.600 C 2.152 67.600,2.000 69.800,2.000 73.400 C 2.000 76.743,2.159 79.200,2.375 79.200 C 2.581 79.200,2.844 81.135,2.959 83.500 C 3.275 90.010,3.629 93.200,4.034 93.200 C 4.235 93.200,4.400 93.495,4.400 93.856 C 4.400 95.309,5.579 95.574,12.100 95.587 C 15.565 95.594,18.400 95.440,18.400 95.245 C 18.400 95.050,18.895 94.792,19.500 94.671 C 20.105 94.551,21.413 94.273,22.407 94.055 C 23.400 93.837,25.958 93.612,28.091 93.556 L 31.969 93.452 33.685 95.405 C 38.367 100.736,48.541 108.800,50.584 108.800 C 50.787 108.800,49.905 108.169,48.623 107.397 C 36.368 100.017,25.917 86.913,22.785 75.000 C 22.611 74.340,22.206 72.810,21.884 71.600 C 21.562 70.390,21.181 68.612,21.037 67.650 C 20.549 64.398,20.553 64.400,15.386 64.400 C 12.595 64.400,10.800 64.557,10.800 64.800 M100.400 110.600 C 99.850 110.914,99.580 111.172,99.800 111.172 C 100.020 111.172,100.650 110.914,101.200 110.600 C 101.750 110.286,102.020 110.028,101.800 110.028 C 101.580 110.028,100.950 110.286,100.400 110.600 M62.600 113.600 C 63.040 113.789,63.670 113.944,64.000 113.944 C 64.378 113.944,64.304 113.817,63.800 113.600 C 63.360 113.411,62.730 113.256,62.400 113.256 C 62.022 113.256,62.096 113.383,62.600 113.600 M87.600 114.400 C 86.808 114.654,86.767 114.720,87.400 114.720 C 87.840 114.720,88.650 114.576,89.200 114.400 C 89.992 114.146,90.033 114.080,89.400 114.080 C 88.960 114.080,88.150 114.224,87.600 114.400 M71.845 115.277 C 73.822 115.629,81.239 115.625,83.600 115.270 C 84.590 115.122,82.000 115.000,77.845 115.000 C 73.690 115.000,70.990 115.125,71.845 115.277 M85.372 158.786 C 82.478 159.957,82.433 164.848,85.300 166.486 C 86.301 167.058,112.763 167.483,116.768 166.991 C 121.456 166.416,123.073 160.348,118.955 158.783 C 117.712 158.310,86.540 158.313,85.372 158.786 M138.600 159.764 C 136.877 161.143,136.836 164.384,138.522 165.835 C 140.212 167.288,142.532 167.172,144.040 165.558 C 147.443 161.915,142.497 156.646,138.600 159.764 M239.800 165.458 C 231.433 165.900,221.212 169.598,213.887 174.833 C 202.869 182.709,195.590 193.885,192.760 207.272 C 191.952 211.090,191.873 212.820,191.699 230.300 L 191.512 249.200 121.856 249.202 C 48.652 249.205,50.255 249.164,47.998 251.063 C 45.777 252.932,45.600 253.690,45.600 261.321 C 45.600 269.346,45.903 270.241,49.188 271.900 L 50.970 272.800 200.000 272.800 L 349.030 272.800 350.792 271.900 C 354.086 270.217,354.785 268.337,354.773 261.200 C 354.762 254.770,354.426 253.354,352.483 251.541 C 349.922 249.152,349.985 249.157,321.653 249.009 L 295.800 248.873 295.573 229.137 L 295.347 209.400 294.108 204.800 C 291.405 194.765,287.318 187.634,280.234 180.589 C 273.437 173.831,264.100 168.515,256.000 166.790 C 254.790 166.533,253.080 166.169,252.200 165.981 C 250.309 165.578,243.204 165.279,239.800 165.458 M85.353 176.224 C 83.283 177.261,82.492 180.411,83.824 182.313 C 85.257 184.359,85.617 184.400,102.200 184.400 C 118.783 184.400,119.143 184.359,120.576 182.313 C 121.769 180.609,121.195 177.522,119.472 176.378 C 118.108 175.473,87.133 175.333,85.353 176.224 M139.400 176.486 C 136.351 178.247,136.484 182.188,139.647 183.824 C 142.080 185.083,145.200 182.927,145.200 179.987 C 145.200 177.286,141.687 175.166,139.400 176.486 M312.893 186.700 L 313.000 196.600 315.400 196.600 L 317.800 196.600 317.907 186.700 L 318.014 176.800 315.400 176.800 L 312.786 176.800 312.893 186.700 M251.200 183.096 C 260.037 185.087,267.598 190.217,272.743 197.713 C 274.578 200.386,276.400 203.937,276.400 204.841 C 276.400 205.258,276.560 205.600,276.756 205.600 C 276.952 205.600,277.186 206.230,277.276 207.000 L 277.439 208.400 267.114 208.400 C 261.435 208.400,256.477 208.560,256.095 208.756 C 255.713 208.952,254.529 209.529,253.464 210.038 C 247.041 213.107,244.175 222.848,248.318 227.526 L 249.138 228.451 247.969 230.184 C 246.373 232.548,246.256 237.115,247.742 238.973 L 248.681 240.146 247.499 241.822 C 246.511 243.224,246.313 243.902,246.294 245.950 L 246.271 248.400 227.535 248.400 L 208.800 248.400 208.800 230.024 C 208.800 218.204,208.943 211.559,209.200 211.400 C 209.420 211.264,209.600 210.443,209.600 209.576 C 209.600 208.709,209.780 208.000,210.000 208.000 C 210.220 208.000,210.400 207.548,210.400 206.995 C 210.400 206.442,210.560 205.677,210.756 205.295 C 210.952 204.913,211.531 203.700,212.042 202.600 C 216.473 193.067,228.819 183.242,236.427 183.194 C 236.962 183.191,237.670 183.008,238.000 182.788 C 238.740 182.296,248.676 182.527,251.200 183.096 M86.515 193.076 C 83.199 193.521,82.065 197.835,84.628 200.253 L 86.057 201.600 102.200 201.600 L 118.343 201.600 119.772 200.253 C 121.836 198.305,121.690 195.051,119.472 193.578 C 118.624 193.016,90.189 192.582,86.515 193.076 M139.900 193.476 C 139.515 193.576,139.200 193.836,139.200 194.053 C 139.200 194.270,139.020 194.336,138.800 194.200 C 138.580 194.064,138.400 194.244,138.400 194.600 C 138.400 194.956,138.229 195.142,138.020 195.012 C 136.714 194.205,137.164 199.328,138.501 200.487 C 141.895 203.431,146.993 199.108,144.541 195.365 C 143.460 193.717,141.708 193.003,139.900 193.476 M282.377 209.296 C 291.428 212.472,294.841 224.495,287.854 228.589 L 286.130 229.600 269.714 229.600 C 251.930 229.600,251.600 229.564,249.418 227.382 C 245.050 223.014,247.566 213.933,254.078 210.558 C 256.606 209.248,258.259 209.046,268.400 208.811 C 274.010 208.680,278.870 208.533,279.200 208.483 C 279.530 208.433,280.959 208.799,282.377 209.296 M84.694 210.502 C 82.607 212.197,82.589 215.547,84.659 217.175 C 85.680 217.978,86.145 218.000,102.285 218.000 L 118.862 218.000 120.080 216.782 C 121.740 215.122,121.575 211.985,119.751 210.525 L 118.600 209.604 102.200 209.604 L 85.800 209.604 84.694 210.502 M139.297 210.584 C 137.761 211.267,137.045 212.822,137.354 214.800 C 137.854 218.000,141.799 219.156,144.040 216.758 C 147.144 213.434,143.514 208.708,139.297 210.584 M287.651 239.765 C 290.891 241.122,293.116 247.124,291.120 249.120 C 290.595 249.645,267.643 249.727,254.400 249.251 L 247.400 249.000 247.279 246.649 C 246.997 241.210,248.820 239.883,257.000 239.572 C 270.205 239.069,286.231 239.170,287.651 239.765 M55.467 337.866 C 54.892 338.442,55.279 339.445,56.445 340.400 C 57.117 340.950,58.057 341.832,58.533 342.361 C 61.019 345.115,66.375 350.337,67.600 351.201 C 68.370 351.743,69.595 352.779,70.323 353.503 C 71.050 354.227,71.820 354.711,72.033 354.580 C 72.246 354.448,72.370 354.551,72.310 354.807 C 72.249 355.064,72.548 355.483,72.973 355.737 C 73.399 355.992,74.350 356.785,75.087 357.500 C 75.824 358.215,76.651 358.800,76.925 358.800 C 77.199 358.800,77.683 359.160,78.000 359.600 C 78.317 360.040,78.907 360.400,79.312 360.400 C 79.716 360.400,79.936 360.580,79.800 360.800 C 79.664 361.020,79.794 361.200,80.088 361.200 C 80.383 361.200,80.883 361.560,81.200 362.000 C 81.517 362.440,82.007 362.800,82.288 362.800 C 82.570 362.800,82.800 362.980,82.800 363.200 C 82.800 363.420,83.030 363.600,83.312 363.600 C 83.593 363.600,84.083 363.960,84.400 364.400 C 84.717 364.840,85.257 365.200,85.600 365.200 C 85.943 365.200,86.483 365.560,86.800 366.000 C 87.117 366.440,87.657 366.800,88.000 366.800 C 88.343 366.800,88.883 367.160,89.200 367.600 C 89.517 368.040,90.057 368.400,90.400 368.400 C 90.743 368.400,91.283 368.760,91.600 369.200 C 91.917 369.640,92.329 370.000,92.516 370.000 C 92.703 370.000,93.641 370.540,94.600 371.200 C 95.559 371.860,96.464 372.400,96.610 372.400 C 96.757 372.400,97.367 372.749,97.966 373.176 C 98.566 373.603,99.309 374.008,99.619 374.076 C 99.928 374.144,100.423 374.425,100.719 374.700 C 101.015 374.975,101.604 375.200,102.029 375.200 C 102.453 375.200,102.800 375.380,102.800 375.600 C 102.800 375.820,103.120 376.000,103.512 376.000 C 103.903 376.000,104.483 376.360,104.800 376.800 C 105.117 377.240,105.697 377.600,106.088 377.600 C 106.480 377.600,106.800 377.780,106.800 378.000 C 106.800 378.220,107.160 378.400,107.600 378.400 C 108.040 378.400,108.400 378.580,108.400 378.800 C 108.400 379.020,108.745 379.200,109.167 379.200 C 109.588 379.200,109.993 379.335,110.067 379.500 C 110.287 379.995,115.254 382.400,116.056 382.400 C 116.465 382.400,116.800 382.580,116.800 382.800 C 116.800 383.020,117.160 383.200,117.600 383.200 C 118.040 383.200,118.400 383.380,118.400 383.600 C 118.400 383.820,118.760 384.000,119.200 384.000 C 119.640 384.000,120.000 384.180,120.000 384.400 C 120.000 384.620,120.540 384.800,121.200 384.800 C 121.860 384.800,122.400 384.980,122.400 385.200 C 122.400 385.420,122.760 385.600,123.200 385.600 C 123.640 385.600,124.000 385.780,124.000 386.000 C 124.000 386.220,124.540 386.400,125.200 386.400 C 125.860 386.400,126.400 386.536,126.400 386.702 C 126.400 386.869,126.985 387.244,127.700 387.536 C 130.450 388.659,131.022 388.904,131.695 389.247 C 132.077 389.441,132.664 389.600,133.000 389.600 C 133.336 389.600,133.923 389.763,134.305 389.963 C 135.447 390.560,139.222 391.600,140.246 391.600 C 140.771 391.600,141.200 391.780,141.200 392.000 C 141.200 392.220,141.830 392.400,142.600 392.400 C 143.370 392.400,144.000 392.580,144.000 392.800 C 144.000 393.020,144.529 393.200,145.176 393.200 C 145.823 393.200,146.464 393.380,146.600 393.600 C 146.736 393.820,147.467 394.000,148.224 394.000 C 148.981 394.000,149.600 394.180,149.600 394.400 C 149.600 394.620,150.320 394.800,151.200 394.800 C 152.080 394.800,152.800 394.980,152.800 395.200 C 152.800 395.420,153.520 395.600,154.400 395.600 C 155.280 395.600,156.000 395.746,156.000 395.925 C 156.000 396.104,156.855 396.294,157.900 396.347 C 158.945 396.400,159.860 396.613,159.933 396.821 C 160.007 397.030,161.042 397.200,162.233 397.200 C 163.425 397.200,164.400 397.380,164.400 397.600 C 164.400 397.822,165.467 398.000,166.800 398.000 C 168.133 398.000,169.200 398.178,169.200 398.400 C 169.200 398.628,170.389 398.800,171.967 398.800 C 173.824 398.800,174.788 398.964,174.900 399.300 C 175.144 400.032,224.856 400.032,225.100 399.300 C 225.212 398.964,226.176 398.800,228.033 398.800 C 229.611 398.800,230.800 398.628,230.800 398.400 C 230.800 398.180,231.700 398.000,232.800 398.000 C 233.900 398.000,234.800 397.820,234.800 397.600 C 234.800 397.374,235.933 397.200,237.400 397.200 C 238.867 397.200,240.000 397.026,240.000 396.800 C 240.000 396.580,240.799 396.400,241.776 396.400 C 242.753 396.400,243.664 396.220,243.800 396.000 C 243.936 395.780,244.757 395.600,245.624 395.600 C 246.491 395.600,247.200 395.420,247.200 395.200 C 247.200 394.980,247.920 394.800,248.800 394.800 C 249.680 394.800,250.400 394.620,250.400 394.400 C 250.400 394.180,251.030 394.000,251.800 394.000 C 252.570 394.000,253.200 393.820,253.200 393.600 C 253.200 393.380,253.830 393.200,254.600 393.200 C 255.370 393.200,256.000 393.020,256.000 392.800 C 256.000 392.580,256.641 392.400,257.424 392.400 C 258.207 392.400,258.751 392.245,258.634 392.055 C 258.516 391.865,259.347 391.599,260.480 391.465 C 261.613 391.331,262.663 391.021,262.815 390.776 C 262.966 390.532,263.159 390.392,263.245 390.465 C 263.530 390.711,267.600 389.460,267.600 389.128 C 267.600 388.947,268.052 388.800,268.605 388.800 C 269.158 388.800,269.923 388.641,270.305 388.447 C 270.687 388.252,271.540 387.871,272.200 387.600 C 272.860 387.329,273.713 386.948,274.095 386.753 C 274.477 386.559,275.062 386.400,275.395 386.400 C 275.728 386.400,276.000 386.220,276.000 386.000 C 276.000 385.780,276.540 385.600,277.200 385.600 C 277.860 385.600,278.400 385.420,278.400 385.200 C 278.400 384.980,278.760 384.800,279.200 384.800 C 279.640 384.800,280.000 384.620,280.000 384.400 C 280.000 384.180,280.360 384.000,280.800 384.000 C 281.240 384.000,281.600 383.820,281.600 383.600 C 281.600 383.380,281.960 383.200,282.400 383.200 C 282.840 383.200,283.200 383.020,283.200 382.800 C 283.200 382.580,283.616 382.400,284.125 382.400 C 284.633 382.400,285.436 382.040,285.908 381.600 C 286.380 381.160,287.224 380.800,287.783 380.800 C 288.342 380.800,288.800 380.620,288.800 380.400 C 288.800 380.180,289.070 380.000,289.400 380.000 C 289.730 380.000,290.000 379.820,290.000 379.600 C 290.000 379.380,290.360 379.200,290.800 379.200 C 291.240 379.200,291.600 379.020,291.600 378.800 C 291.600 378.580,291.920 378.400,292.312 378.400 C 292.703 378.400,293.280 378.044,293.594 377.609 C 294.013 377.027,294.246 376.948,294.476 377.309 C 294.721 377.694,294.789 377.692,294.794 377.300 C 294.797 377.025,295.036 376.800,295.325 376.800 C 295.613 376.800,296.204 376.469,296.638 376.065 C 297.072 375.661,297.950 375.199,298.589 375.039 C 299.228 374.878,300.240 374.399,300.837 373.973 C 301.435 373.548,302.121 373.200,302.362 373.200 C 302.603 373.200,302.800 373.020,302.800 372.800 C 302.800 372.580,302.993 372.400,303.228 372.400 C 303.463 372.400,304.441 371.860,305.400 371.200 C 306.359 370.540,307.297 370.000,307.484 370.000 C 307.671 370.000,308.083 369.640,308.400 369.200 C 308.717 368.760,309.257 368.400,309.600 368.400 C 309.943 368.400,310.483 368.040,310.800 367.600 C 311.117 367.160,311.657 366.800,312.000 366.800 C 312.343 366.800,312.883 366.440,313.200 366.000 C 313.517 365.560,314.057 365.200,314.400 365.200 C 314.743 365.200,315.283 364.840,315.600 364.400 C 315.917 363.960,316.380 363.600,316.629 363.600 C 316.878 363.600,317.646 363.060,318.337 362.400 C 319.028 361.740,319.785 361.200,320.020 361.200 C 320.255 361.200,320.336 361.020,320.200 360.800 C 320.064 360.580,320.284 360.400,320.688 360.400 C 321.093 360.400,321.683 360.040,322.000 359.600 C 322.317 359.160,322.814 358.800,323.104 358.800 C 323.394 358.800,324.358 358.080,325.247 357.200 C 326.136 356.320,326.997 355.600,327.160 355.600 C 327.323 355.600,328.262 354.829,329.245 353.887 C 330.229 352.944,331.656 351.732,332.417 351.193 C 333.492 350.431,337.784 346.231,341.913 341.899 C 342.071 341.733,342.799 341.063,343.531 340.409 C 344.315 339.709,344.806 338.929,344.726 338.510 C 344.585 337.781,56.195 337.139,55.467 337.866 " stroke="none" fill="#a23e3b" fill-rule="evenodd"></path><path id="path1" d="M74.000 16.246 C 57.247 17.646,40.884 31.257,37.508 46.600 C 37.315 47.480,36.975 49.010,36.753 50.000 C 32.426 69.310,45.173 91.057,64.425 97.208 C 88.241 104.817,111.712 91.669,118.349 67.000 C 125.407 40.767,101.940 13.911,74.000 16.246 M89.354 35.650 C 98.406 38.126,103.190 48.264,98.048 54.076 L 97.096 55.152 98.548 56.848 C 100.478 59.103,100.704 63.601,99.000 65.836 C 98.450 66.557,98.000 67.261,98.000 67.400 C 98.000 67.539,98.450 68.243,99.000 68.964 C 100.442 70.855,100.454 75.229,99.023 77.168 C 96.975 79.945,98.146 79.800,77.800 79.800 L 59.400 79.800 58.094 78.868 C 55.332 76.899,54.532 71.331,56.648 68.816 C 57.612 67.670,57.646 67.514,57.064 66.870 C 54.470 64.005,54.791 57.853,57.637 55.859 L 58.561 55.212 57.529 54.106 C 53.165 49.427,56.158 40.137,63.118 36.757 C 65.673 35.517,85.766 34.669,89.354 35.650 M165.000 134.428 C 140.155 134.698,120.179 135.182,100.000 136.002 C 94.610 136.222,85.726 136.576,80.257 136.790 C 64.926 137.391,66.249 136.439,64.396 148.200 C 59.770 177.559,59.580 208.549,63.842 238.600 C 65.095 247.432,65.224 248.147,65.658 248.670 C 66.023 249.110,76.988 249.185,128.750 249.101 L 191.400 249.000 191.645 230.200 C 191.926 208.653,192.266 205.858,195.587 197.800 C 201.921 182.427,216.253 170.091,231.600 166.802 C 232.810 166.543,234.520 166.144,235.400 165.916 C 237.476 165.378,250.124 165.378,252.200 165.916 C 253.080 166.144,254.790 166.543,256.000 166.803 C 258.711 167.384,260.877 168.060,261.380 168.482 C 261.589 168.657,262.039 168.803,262.380 168.806 C 266.144 168.841,281.970 180.585,284.880 185.502 C 285.237 186.106,285.920 187.050,286.398 187.600 C 288.923 190.505,292.624 198.735,294.276 205.114 L 295.385 209.400 295.614 229.200 C 295.740 240.090,295.878 249.045,295.921 249.100 C 295.965 249.155,297.532 249.200,299.405 249.200 L 302.809 249.200 302.620 247.700 C 302.516 246.875,302.240 243.860,302.006 241.000 C 301.772 238.140,301.410 234.000,301.200 231.800 C 300.990 229.600,300.631 225.460,300.401 222.600 C 300.172 219.740,299.808 215.951,299.592 214.179 C 299.376 212.408,299.200 210.383,299.200 209.679 L 299.200 208.400 314.967 208.400 C 330.039 208.400,332.231 208.503,331.808 209.188 C 331.704 209.355,331.415 212.081,331.164 215.246 C 330.913 218.411,330.570 222.620,330.400 224.600 C 330.230 226.580,329.889 230.810,329.642 234.000 C 329.394 237.190,329.013 241.574,328.796 243.742 C 328.193 249.743,327.937 249.200,331.376 249.200 C 334.776 249.200,334.843 249.145,335.285 246.000 C 335.455 244.790,335.774 242.630,335.994 241.200 C 340.440 212.296,340.459 179.270,336.045 149.800 C 334.051 136.488,334.762 137.221,323.400 136.752 C 319.220 136.580,311.120 136.248,305.400 136.014 C 290.745 135.415,266.571 134.866,235.600 134.427 C 206.632 134.016,202.933 134.016,165.000 134.428 M118.957 158.606 C 121.937 160.020,122.458 163.990,119.942 166.100 L 118.630 167.200 102.128 167.200 L 85.627 167.200 84.213 165.787 C 81.880 163.453,82.465 159.832,85.381 158.562 C 87.296 157.728,117.189 157.767,118.957 158.606 M144.057 159.855 C 146.954 162.630,145.027 167.200,140.961 167.200 C 139.798 167.200,139.216 166.905,138.147 165.772 C 134.254 161.643,139.961 155.930,144.057 159.855 M119.500 175.996 C 121.901 177.587,122.163 181.357,120.008 183.300 L 118.787 184.400 102.222 184.400 L 85.657 184.400 84.228 183.053 C 81.619 180.591,82.630 176.716,86.192 175.531 C 87.981 174.936,118.544 175.363,119.500 175.996 M142.274 176.027 C 147.118 177.862,146.169 184.400,141.058 184.400 C 137.106 184.400,135.364 179.122,138.550 176.800 C 140.252 175.560,140.762 175.454,142.274 176.027 M317.907 186.700 L 318.014 196.800 315.407 196.800 L 312.800 196.800 312.800 186.833 C 312.800 175.732,312.606 176.399,315.800 176.522 L 317.800 176.600 317.907 186.700 M119.362 193.255 C 121.930 194.426,122.258 198.611,119.949 200.762 C 119.065 201.585,118.754 201.600,102.166 201.600 L 85.283 201.600 84.041 200.186 C 82.258 198.155,82.300 196.020,84.160 194.160 L 85.520 192.800 101.941 192.800 C 113.369 192.800,118.666 192.938,119.362 193.255 M143.513 193.824 C 147.057 196.307,145.460 201.600,141.167 201.600 C 136.914 201.600,135.174 196.091,138.730 193.885 C 140.086 193.044,142.358 193.015,143.513 193.824 M119.213 209.807 C 121.786 211.137,122.324 215.058,120.221 217.161 L 119.182 218.200 102.158 218.200 L 85.134 218.200 83.967 216.894 C 81.980 214.670,82.561 211.210,85.157 209.799 C 86.759 208.928,117.528 208.935,119.213 209.807 M143.482 210.483 C 143.967 210.721,144.642 211.502,144.982 212.218 C 147.180 216.850,141.215 220.651,137.900 216.731 C 134.710 212.959,138.921 208.245,143.482 210.483 " stroke="none" fill="#dbf2f2" fill-rule="evenodd"></path><path id="path2" d="M71.800 35.593 C 65.844 35.812,64.767 35.957,63.118 36.757 C 54.903 40.746,52.702 52.461,59.600 55.483 C 62.638 56.814,93.213 57.235,95.800 55.981 C 101.526 53.207,101.480 44.538,95.710 39.142 C 91.455 35.161,89.869 34.926,71.800 35.593 M66.400 66.415 C 62.770 66.571,59.350 66.827,58.800 66.984 C 54.797 68.127,54.318 76.176,58.094 78.868 L 59.400 79.800 77.800 79.800 C 98.146 79.800,96.975 79.945,99.023 77.168 C 101.191 74.230,99.943 68.367,96.800 66.723 C 95.645 66.119,77.571 65.936,66.400 66.415 M161.200 87.229 C 122.450 88.144,127.484 87.441,124.000 92.424 C 103.529 121.701,58.097 123.198,33.680 95.401 L 31.961 93.443 28.480 93.532 C 20.784 93.729,20.000 94.049,20.000 96.990 C 20.000 98.180,19.820 99.264,19.600 99.400 C 19.380 99.536,19.200 101.257,19.200 103.224 C 19.200 105.341,19.037 106.800,18.800 106.800 C 18.563 106.800,18.400 108.275,18.400 110.426 C 18.400 112.421,18.202 114.422,17.960 114.875 C 17.683 115.393,17.672 115.603,17.931 115.442 C 18.528 115.074,18.642 116.562,18.295 120.200 C 17.354 130.077,17.095 133.188,16.002 147.800 C 15.348 156.550,14.837 164.987,14.402 174.200 C 14.174 179.040,13.784 186.780,13.536 191.400 C 12.977 201.796,12.712 273.600,13.233 273.600 C 13.435 273.600,13.600 274.140,13.600 274.800 C 13.600 275.460,13.780 276.000,14.000 276.000 C 14.220 276.000,14.400 276.360,14.400 276.800 C 14.400 277.240,14.580 277.600,14.800 277.600 C 15.020 277.600,15.200 278.061,15.200 278.624 C 15.200 279.204,15.373 279.540,15.600 279.400 C 15.833 279.256,16.000 279.663,16.000 280.376 C 16.000 281.049,16.180 281.600,16.400 281.600 C 16.620 281.600,16.800 281.960,16.800 282.400 C 16.800 282.840,16.980 283.200,17.200 283.200 C 17.420 283.200,17.600 283.650,17.600 284.200 C 17.600 284.750,17.780 285.200,18.000 285.200 C 18.220 285.200,18.400 285.470,18.400 285.800 C 18.400 286.130,18.580 286.400,18.800 286.400 C 19.020 286.400,19.200 286.743,19.200 287.162 C 19.200 288.069,20.808 291.200,21.274 291.200 C 21.453 291.200,21.600 291.568,21.600 292.017 C 21.600 292.466,21.960 293.220,22.400 293.692 C 22.840 294.164,23.200 294.787,23.200 295.075 C 23.200 295.364,23.380 295.600,23.600 295.600 C 23.820 295.600,24.000 295.960,24.000 296.400 C 24.000 296.840,24.157 297.200,24.350 297.200 C 24.542 297.200,24.799 297.695,24.920 298.300 C 25.041 298.905,25.598 300.075,26.158 300.900 C 26.718 301.725,27.064 302.400,26.927 302.400 C 26.790 302.400,27.065 302.736,27.539 303.147 C 28.012 303.558,28.400 304.154,28.400 304.471 C 28.400 304.789,28.760 305.436,29.200 305.908 C 29.640 306.380,30.000 307.004,30.000 307.295 C 30.000 307.586,30.360 308.083,30.800 308.400 C 31.240 308.717,31.600 309.173,31.600 309.413 C 31.600 309.653,31.915 310.198,32.300 310.625 C 32.685 311.051,33.255 311.895,33.568 312.500 C 33.880 313.105,34.285 313.600,34.468 313.600 C 34.650 313.600,34.800 313.872,34.800 314.204 C 34.800 314.536,35.340 315.372,36.000 316.063 C 36.660 316.754,37.200 317.522,37.200 317.771 C 37.200 318.020,37.560 318.483,38.000 318.800 C 38.440 319.117,38.800 319.707,38.800 320.112 C 38.800 320.516,38.980 320.736,39.200 320.600 C 39.420 320.464,39.600 320.594,39.600 320.888 C 39.600 321.183,39.960 321.683,40.400 322.000 C 40.840 322.317,41.200 322.741,41.200 322.941 C 41.200 323.142,41.588 323.642,42.061 324.053 C 42.535 324.464,42.777 324.800,42.600 324.800 C 42.423 324.800,42.665 325.136,43.139 325.547 C 43.612 325.958,44.000 326.424,44.000 326.583 C 44.000 326.876,45.153 328.210,47.500 330.632 C 48.215 331.370,48.800 332.279,48.800 332.653 C 48.800 333.027,48.911 333.222,49.048 333.086 C 49.281 332.852,50.400 333.721,50.400 334.136 C 50.400 335.007,54.936 338.857,55.267 338.266 C 55.824 337.270,344.154 337.231,344.711 338.227 C 344.997 338.738,345.637 338.293,348.159 335.827 C 349.862 334.162,351.146 332.800,351.012 332.800 C 350.735 332.800,351.182 332.242,353.275 329.980 C 354.087 329.104,354.865 328.027,355.004 327.587 C 355.143 327.148,355.425 326.892,355.629 327.018 C 355.833 327.144,356.002 327.012,356.004 326.724 C 356.006 326.436,356.546 325.775,357.204 325.255 C 357.862 324.735,358.400 324.068,358.400 323.773 C 358.400 323.478,358.850 322.786,359.400 322.236 C 359.950 321.686,360.400 321.048,360.400 320.819 C 360.400 320.589,361.120 319.659,362.000 318.752 C 362.880 317.845,363.600 316.895,363.600 316.640 C 363.600 316.385,363.960 315.917,364.400 315.600 C 364.840 315.283,365.200 314.703,365.200 314.312 C 365.200 313.920,365.350 313.600,365.532 313.600 C 365.715 313.600,366.119 313.105,366.430 312.500 C 366.740 311.895,367.311 311.109,367.697 310.753 C 368.084 310.397,368.400 309.852,368.400 309.541 C 368.400 309.231,368.760 308.717,369.200 308.400 C 369.640 308.083,370.000 307.503,370.000 307.112 C 370.000 306.720,370.180 306.400,370.400 306.400 C 370.620 306.400,370.800 306.164,370.800 305.875 C 370.800 305.587,371.160 304.964,371.600 304.492 C 372.040 304.020,372.400 303.523,372.400 303.389 C 372.400 303.254,372.943 302.355,373.606 301.391 C 374.270 300.427,374.922 299.089,375.056 298.419 C 375.190 297.748,375.457 297.200,375.650 297.200 C 375.843 297.200,376.000 296.840,376.000 296.400 C 376.000 295.960,376.180 295.600,376.400 295.600 C 376.620 295.600,376.800 295.319,376.800 294.976 C 376.800 294.633,376.980 294.464,377.200 294.600 C 377.420 294.736,377.600 294.564,377.600 294.218 C 377.600 293.613,378.353 292.013,378.832 291.600 C 378.960 291.490,379.319 290.815,379.630 290.100 C 379.941 289.385,380.331 288.800,380.498 288.800 C 380.664 288.800,380.800 288.361,380.800 287.824 C 380.800 287.287,380.980 286.736,381.200 286.600 C 381.420 286.464,381.600 285.993,381.600 285.553 C 381.600 285.113,381.780 284.864,382.000 285.000 C 382.227 285.140,382.400 284.804,382.400 284.224 C 382.400 283.661,382.580 283.200,382.800 283.200 C 383.020 283.200,383.200 282.840,383.200 282.400 C 383.200 281.960,383.380 281.600,383.600 281.600 C 383.820 281.600,384.000 281.240,384.000 280.800 C 384.000 280.360,384.180 280.000,384.400 280.000 C 384.620 280.000,384.800 279.460,384.800 278.800 C 384.800 278.140,384.980 277.600,385.200 277.600 C 385.420 277.600,385.600 277.240,385.600 276.800 C 385.600 276.360,385.741 276.000,385.913 276.000 C 386.922 276.000,387.109 271.469,387.165 245.600 C 387.259 202.557,385.973 168.994,382.825 132.400 C 381.583 117.957,381.489 115.916,382.047 115.571 C 382.482 115.302,382.492 115.132,382.097 114.737 C 381.772 114.412,381.600 112.949,381.600 110.520 C 381.600 108.307,381.438 106.800,381.200 106.800 C 380.963 106.800,380.800 105.341,380.800 103.224 C 380.800 101.257,380.620 99.536,380.400 99.400 C 380.180 99.264,380.000 98.180,380.000 96.990 C 380.000 94.169,379.739 94.043,372.877 93.567 C 369.865 93.357,365.060 93.009,362.200 92.792 C 354.601 92.217,344.775 91.582,325.200 90.402 C 307.839 89.355,275.241 88.063,254.000 87.578 C 228.175 86.989,179.175 86.805,161.200 87.229 M235.600 134.427 C 266.571 134.866,290.745 135.415,305.400 136.014 C 337.166 137.312,333.909 136.375,335.238 144.600 C 340.465 176.962,340.727 210.431,335.994 241.200 C 335.774 242.630,335.455 244.790,335.285 246.000 C 335.115 247.210,334.836 248.425,334.664 248.700 C 334.420 249.092,335.798 249.200,341.076 249.202 C 353.173 249.206,354.755 250.592,354.773 261.200 C 354.785 268.337,354.086 270.217,350.792 271.900 L 349.030 272.800 200.000 272.800 L 50.970 272.800 49.188 271.900 C 45.903 270.241,45.600 269.346,45.600 261.321 C 45.600 250.113,46.613 249.206,59.149 249.202 C 64.880 249.200,66.021 249.107,65.657 248.669 C 65.224 248.147,65.095 247.431,63.842 238.600 C 59.580 208.549,59.770 177.559,64.396 148.200 C 66.249 136.439,64.926 137.391,80.257 136.790 C 85.726 136.576,94.610 136.222,100.000 136.002 C 120.179 135.182,140.155 134.698,165.000 134.428 C 202.933 134.016,206.632 134.016,235.600 134.427 M314.500 176.687 C 315.105 176.778,316.095 176.778,316.700 176.687 C 317.305 176.595,316.810 176.520,315.600 176.520 C 314.390 176.520,313.895 176.595,314.500 176.687 M268.400 208.811 C 258.259 209.046,256.606 209.248,254.078 210.558 C 247.566 213.933,245.050 223.014,249.418 227.382 C 251.600 229.564,251.930 229.600,269.714 229.600 L 286.130 229.600 287.854 228.589 C 294.841 224.495,291.428 212.472,282.377 209.296 C 280.959 208.799,279.530 208.433,279.200 208.483 C 278.870 208.533,274.010 208.680,268.400 208.811 M257.000 239.572 C 248.820 239.883,246.997 241.210,247.279 246.649 L 247.400 249.000 254.400 249.251 C 267.643 249.727,290.595 249.645,291.120 249.120 C 292.354 247.886,291.594 243.183,289.850 241.265 C 287.916 239.138,279.619 238.710,257.000 239.572 " stroke="none" fill="#fbbc14" fill-rule="evenodd"></path><path id="path3" d="M65.700 0.274 C 64.545 0.366,63.600 0.612,63.600 0.821 C 63.600 1.029,62.970 1.200,62.200 1.200 C 61.430 1.200,60.800 1.380,60.800 1.600 C 60.800 1.820,60.260 2.000,59.600 2.000 C 58.940 2.000,58.400 2.180,58.400 2.400 C 58.400 2.620,57.860 2.800,57.200 2.800 C 56.540 2.800,56.000 2.980,56.000 3.200 C 56.000 3.420,55.640 3.600,55.200 3.600 C 54.760 3.600,54.400 3.780,54.400 4.000 C 54.400 4.220,54.040 4.400,53.600 4.400 C 53.160 4.400,52.800 4.580,52.800 4.800 C 52.800 5.020,52.440 5.200,52.000 5.200 C 51.560 5.200,51.200 5.380,51.200 5.600 C 51.200 5.820,50.840 6.000,50.400 6.000 C 49.960 6.000,49.600 6.180,49.600 6.400 C 49.600 6.620,49.240 6.800,48.800 6.800 C 48.360 6.800,48.000 6.980,48.000 7.200 C 48.000 7.420,47.722 7.600,47.383 7.600 C 47.044 7.600,46.549 7.781,46.283 8.001 C 46.017 8.222,44.832 9.051,43.649 9.843 C 40.088 12.228,30.800 21.312,30.800 22.410 C 30.800 22.628,30.303 23.327,29.696 23.962 C 29.089 24.597,28.167 25.901,27.648 26.858 C 27.128 27.816,26.274 29.392,25.751 30.360 C 25.228 31.327,24.800 32.362,24.800 32.660 C 24.800 32.957,24.620 33.200,24.400 33.200 C 24.180 33.200,24.000 33.740,24.000 34.400 C 24.000 35.060,23.820 35.600,23.600 35.600 C 23.380 35.600,23.200 35.960,23.200 36.400 C 23.200 36.840,23.020 37.200,22.800 37.200 C 22.580 37.200,22.400 37.740,22.400 38.400 C 22.400 39.060,22.220 39.600,22.000 39.600 C 21.780 39.600,21.600 40.219,21.600 40.976 C 21.600 41.733,21.420 42.464,21.200 42.600 C 20.980 42.736,20.800 43.467,20.800 44.224 C 20.800 44.981,20.620 45.600,20.400 45.600 C 20.174 45.600,20.000 46.733,20.000 48.200 C 20.000 49.667,19.826 50.800,19.600 50.800 C 18.752 50.800,19.100 63.900,19.971 64.771 C 20.395 65.195,20.866 66.410,21.017 67.471 C 21.168 68.532,21.557 70.390,21.881 71.600 C 22.204 72.810,22.611 74.340,22.785 75.000 C 26.656 89.724,41.021 105.199,56.400 111.212 C 60.124 112.668,61.327 113.018,67.600 114.468 C 70.596 115.160,84.178 115.166,87.600 114.476 C 106.855 110.595,121.109 99.694,129.673 82.300 C 130.513 80.595,131.200 78.966,131.200 78.680 C 131.200 78.394,131.349 77.989,131.530 77.780 C 131.712 77.571,132.093 76.590,132.377 75.600 C 132.661 74.610,133.033 73.350,133.204 72.800 C 133.533 71.739,134.084 69.018,134.807 64.881 C 135.743 59.526,135.168 49.313,133.604 43.500 C 133.382 42.675,133.043 41.415,132.852 40.700 C 131.179 34.447,126.182 25.579,120.994 19.654 C 119.767 18.254,118.832 16.905,118.914 16.657 C 119.074 16.179,114.166 11.200,113.535 11.200 C 113.331 11.200,112.714 10.750,112.164 10.200 C 111.614 9.650,110.878 9.200,110.529 9.200 C 110.180 9.200,109.603 8.871,109.247 8.470 C 108.891 8.068,108.015 7.484,107.300 7.172 C 106.585 6.860,106.000 6.469,106.000 6.302 C 106.000 6.136,105.640 6.000,105.200 6.000 C 104.760 6.000,104.400 5.820,104.400 5.600 C 104.400 5.380,104.040 5.200,103.600 5.200 C 103.160 5.200,102.800 5.020,102.800 4.800 C 102.800 4.580,102.440 4.400,102.000 4.400 C 101.560 4.400,101.200 4.220,101.200 4.000 C 101.200 3.780,100.761 3.600,100.224 3.600 C 99.687 3.600,99.136 3.420,99.000 3.200 C 98.864 2.980,98.403 2.800,97.976 2.800 C 97.549 2.800,97.200 2.620,97.200 2.400 C 97.200 2.180,96.671 2.000,96.024 2.000 C 95.377 2.000,94.736 1.820,94.600 1.600 C 94.464 1.380,93.748 1.200,93.010 1.200 C 92.271 1.200,91.592 0.976,91.501 0.702 C 91.335 0.204,70.820 -0.136,65.700 0.274 M83.776 16.053 C 90.137 17.241,98.390 20.333,100.302 22.244 C 100.607 22.550,101.011 22.800,101.200 22.800 C 101.389 22.800,101.781 23.025,102.071 23.300 C 102.362 23.575,103.230 24.272,104.000 24.848 C 105.801 26.196,109.010 29.406,110.350 31.200 C 110.925 31.970,111.495 32.690,111.617 32.800 C 112.089 33.226,113.530 35.497,114.663 37.600 C 123.544 54.085,120.492 74.533,107.192 87.652 C 104.280 90.524,99.716 94.000,98.855 94.000 C 98.642 94.000,98.407 94.144,98.333 94.320 C 98.150 94.759,92.993 97.200,92.249 97.200 C 91.918 97.200,91.549 97.359,91.429 97.554 C 91.308 97.749,90.713 98.003,90.105 98.118 C 89.497 98.234,87.740 98.630,86.200 98.999 C 76.690 101.273,66.119 99.391,55.600 93.553 C 48.199 89.445,40.695 80.003,37.679 71.000 C 37.300 69.871,37.064 68.919,36.025 64.323 C 34.521 57.677,36.349 45.891,39.928 39.160 C 41.719 35.791,42.868 33.818,43.166 33.600 C 43.316 33.490,43.874 32.770,44.406 32.000 C 45.313 30.687,49.710 26.184,51.479 24.757 C 56.592 20.631,64.158 17.229,70.086 16.388 C 71.662 16.164,73.038 15.896,73.143 15.791 C 73.519 15.415,81.400 15.609,83.776 16.053 M183.373 21.804 C 181.551 22.604,181.427 22.855,179.408 29.800 C 177.776 35.412,176.021 41.418,173.093 51.400 C 172.642 52.940,172.256 54.920,172.236 55.800 L 172.200 57.400 175.846 57.514 L 179.491 57.629 179.897 56.514 C 180.120 55.901,180.558 54.500,180.870 53.400 L 181.438 51.400 186.723 51.288 C 192.747 51.161,192.166 50.813,193.416 55.300 L 194.057 57.600 197.348 57.600 C 201.531 57.600,202.482 56.598,201.225 53.519 C 201.018 53.013,200.098 50.170,199.181 47.200 C 198.263 44.230,197.107 40.540,196.612 39.000 C 196.116 37.460,194.750 33.184,193.576 29.497 L 191.441 22.795 189.794 21.997 C 187.912 21.086,185.194 21.004,183.373 21.804 M212.400 22.101 C 201.091 25.868,202.451 37.230,214.950 43.401 C 219.997 45.893,221.200 46.975,221.200 49.025 C 221.200 52.908,215.441 53.424,210.389 49.993 C 207.734 48.189,207.554 48.150,206.165 49.059 C 203.547 50.775,203.382 53.341,205.731 55.793 L 207.463 57.600 215.958 57.600 L 224.453 57.600 225.817 56.560 C 229.282 53.917,230.436 47.535,228.255 43.076 C 226.767 40.036,224.737 38.353,219.460 35.786 C 214.406 33.329,213.200 32.409,213.200 31.013 C 213.200 28.239,218.403 27.011,222.400 28.842 C 225.809 30.404,227.498 29.932,228.412 27.163 C 229.992 22.375,220.543 19.388,212.400 22.101 M161.381 21.976 C 153.475 22.168,152.008 22.301,151.081 22.909 L 150.000 23.618 149.994 29.709 C 149.991 33.059,150.207 40.795,150.474 46.900 L 150.959 58.000 154.940 58.000 L 158.922 58.000 158.691 51.179 L 158.460 44.357 159.456 43.979 C 160.004 43.770,161.963 43.600,163.810 43.600 C 168.496 43.600,170.235 41.532,167.971 38.654 C 167.167 37.632,167.012 37.600,162.831 37.600 L 158.520 37.600 158.254 33.539 C 157.926 28.539,157.182 29.023,165.423 28.874 C 173.342 28.731,174.000 28.449,174.000 25.190 C 174.000 21.789,173.573 21.680,161.381 21.976 M233.536 22.371 C 232.781 22.983,232.600 23.515,232.600 25.123 C 232.600 28.231,233.348 28.800,237.429 28.800 C 242.519 28.800,242.035 27.131,241.733 43.657 L 241.470 58.031 245.435 57.915 L 249.400 57.800 249.646 53.000 C 249.781 50.360,249.916 43.925,249.946 38.700 L 250.000 29.200 254.138 29.200 C 259.127 29.200,259.800 28.768,259.800 25.569 C 259.800 22.068,260.038 22.134,246.336 21.855 C 235.088 21.626,234.424 21.653,233.536 22.371 M294.000 22.839 C 294.000 23.152,291.682 23.195,285.900 22.991 C 274.446 22.586,275.777 19.511,274.975 48.237 L 274.684 58.674 278.431 58.917 C 282.991 59.212,282.776 59.472,282.829 53.600 C 282.852 51.070,282.989 48.100,283.135 47.000 L 283.400 45.000 287.649 45.128 C 291.857 45.256,291.905 45.247,292.749 44.175 C 295.035 41.268,293.356 39.055,288.739 38.889 C 283.165 38.689,283.554 39.043,283.686 34.289 L 283.800 30.200 291.151 30.200 L 298.502 30.200 299.249 29.200 C 301.286 26.472,300.512 23.200,297.829 23.200 C 297.043 23.200,296.400 23.020,296.400 22.800 C 296.400 22.580,295.860 22.400,295.200 22.400 C 294.540 22.400,294.000 22.597,294.000 22.839 M309.800 24.400 C 309.944 24.633,309.537 24.800,308.824 24.800 C 308.151 24.800,307.600 24.991,307.600 25.224 C 307.600 25.457,307.456 25.558,307.280 25.450 C 306.474 24.952,303.800 27.794,303.751 29.200 C 303.724 29.970,303.411 31.606,303.055 32.836 C 300.865 40.405,302.209 57.084,305.177 59.176 C 306.104 59.830,315.612 60.800,321.090 60.800 C 324.126 60.800,326.699 56.381,327.232 50.255 C 327.425 48.028,327.767 46.144,327.992 46.069 C 328.543 45.886,328.552 30.800,328.000 30.800 C 327.780 30.800,327.600 30.440,327.600 30.000 C 327.600 29.560,327.420 29.200,327.200 29.200 C 326.980 29.200,326.800 28.917,326.800 28.571 C 326.800 27.826,325.803 26.731,325.448 27.086 C 325.311 27.222,325.200 27.127,325.200 26.875 C 325.200 26.252,322.273 24.800,321.016 24.800 C 320.457 24.800,320.000 24.620,320.000 24.400 C 320.000 24.154,317.992 24.000,314.776 24.000 C 311.396 24.000,309.640 24.141,309.800 24.400 M343.585 25.735 C 343.467 25.861,342.702 26.009,341.885 26.064 C 341.068 26.119,340.400 26.307,340.400 26.482 C 340.400 26.657,340.128 26.800,339.795 26.800 C 338.602 26.800,335.600 29.077,335.600 29.982 C 335.600 30.212,335.420 30.400,335.200 30.400 C 334.980 30.400,334.800 30.670,334.800 31.000 C 334.800 31.330,334.620 31.600,334.400 31.600 C 334.180 31.600,334.000 32.140,334.000 32.800 C 334.000 33.460,333.820 34.000,333.600 34.000 C 333.359 34.000,333.200 35.659,333.200 38.176 C 333.200 40.885,333.039 42.452,332.741 42.636 C 331.540 43.379,333.036 56.321,334.643 59.093 C 335.944 61.336,336.191 61.433,342.000 61.997 C 352.353 63.003,357.600 62.147,357.600 59.452 C 357.600 59.130,357.813 58.796,358.073 58.709 C 358.374 58.609,358.611 57.210,358.722 54.876 C 358.819 52.854,359.056 51.200,359.249 51.200 C 359.442 51.200,359.600 48.950,359.600 46.200 C 359.600 43.133,359.755 41.200,360.000 41.200 C 360.229 41.200,360.400 40.000,360.400 38.400 C 360.400 36.800,360.229 35.600,360.000 35.600 C 359.780 35.600,359.600 34.880,359.600 34.000 C 359.600 33.120,359.420 32.400,359.200 32.400 C 358.980 32.400,358.798 32.085,358.797 31.700 C 358.791 30.570,356.126 28.081,353.766 27.002 C 351.665 26.041,344.174 25.109,343.585 25.735 M366.496 28.395 C 366.223 28.832,366.000 29.732,366.000 30.395 C 366.000 31.058,365.820 31.600,365.600 31.600 C 365.357 31.600,365.200 33.392,365.200 36.176 C 365.200 38.796,365.029 40.858,364.800 41.000 C 364.571 41.142,364.400 43.204,364.400 45.824 C 364.400 48.608,364.243 50.400,364.000 50.400 C 363.756 50.400,363.600 52.267,363.600 55.200 C 363.600 58.133,363.444 60.000,363.200 60.000 C 362.236 60.000,362.780 62.812,363.821 63.208 C 367.312 64.535,386.964 65.019,387.840 63.800 C 388.156 63.360,388.637 62.730,388.908 62.400 C 389.587 61.572,390.400 59.148,390.400 57.952 C 390.400 57.406,390.588 56.772,390.818 56.542 C 391.084 56.276,391.266 52.268,391.318 45.562 L 391.400 35.000 390.191 33.200 C 389.526 32.210,388.581 31.222,388.091 31.005 C 387.601 30.788,387.200 30.473,387.200 30.305 C 387.200 30.137,386.840 30.000,386.400 30.000 C 385.960 30.000,385.600 29.820,385.600 29.600 C 385.600 29.380,385.071 29.200,384.424 29.200 C 383.777 29.200,383.136 29.020,383.000 28.800 C 382.864 28.580,381.593 28.400,380.176 28.400 C 378.725 28.400,377.600 28.225,377.600 28.000 C 377.600 27.131,367.051 27.506,366.496 28.395 M187.003 33.100 C 187.162 33.485,187.441 34.340,187.624 35.000 C 188.491 38.143,188.791 39.189,189.527 41.660 C 190.525 45.004,190.347 45.200,186.320 45.200 C 182.732 45.200,182.881 45.473,184.035 41.000 C 184.489 39.240,185.157 36.585,185.520 35.100 C 186.202 32.311,186.507 31.899,187.003 33.100 M317.600 32.921 C 318.856 33.957,319.185 35.308,319.442 40.476 C 319.973 51.160,318.692 55.200,314.774 55.200 C 310.246 55.200,309.773 53.924,310.341 43.245 C 310.822 34.218,310.928 33.600,311.994 33.600 C 312.383 33.600,312.926 33.330,313.200 33.000 C 313.807 32.269,316.746 32.216,317.600 32.921 M347.787 34.559 C 350.202 35.813,350.400 36.344,350.400 41.583 C 350.400 44.528,350.245 46.400,350.000 46.400 C 349.763 46.400,349.600 47.867,349.600 50.000 C 349.600 52.133,349.437 53.600,349.200 53.600 C 348.980 53.600,348.800 53.878,348.800 54.218 C 348.800 57.010,345.137 57.419,342.522 54.918 C 341.536 53.975,341.085 48.000,342.000 48.000 C 342.245 48.000,342.400 46.075,342.400 43.024 C 342.400 40.137,342.568 37.943,342.800 37.800 C 343.020 37.664,343.200 37.191,343.200 36.748 C 343.200 35.786,344.097 34.800,344.971 34.800 C 345.317 34.800,345.600 34.620,345.600 34.400 C 345.600 33.836,346.522 33.903,347.787 34.559 M377.400 36.800 C 377.536 37.020,378.279 37.200,379.052 37.200 C 380.486 37.200,381.016 37.555,381.900 39.110 C 382.495 40.155,382.576 44.800,382.000 44.800 C 381.759 44.800,381.600 46.459,381.600 48.976 C 381.600 51.329,381.425 53.261,381.200 53.400 C 380.980 53.536,380.800 54.292,380.800 55.080 C 380.800 57.898,378.527 59.176,374.655 58.536 L 373.111 58.281 373.390 56.040 C 373.787 52.854,374.386 45.652,374.624 41.200 C 374.736 39.110,374.906 37.175,375.001 36.900 C 375.208 36.305,377.047 36.228,377.400 36.800 M238.000 182.788 C 237.670 183.008,236.962 183.191,236.427 183.194 C 228.819 183.242,216.473 193.067,212.042 202.600 C 211.531 203.700,210.952 204.913,210.756 205.295 C 210.560 205.677,210.400 206.442,210.400 206.995 C 210.400 207.548,210.220 208.000,210.000 208.000 C 209.780 208.000,209.600 208.709,209.600 209.576 C 209.600 210.443,209.420 211.264,209.200 211.400 C 208.943 211.559,208.800 218.204,208.800 230.024 L 208.800 248.400 227.535 248.400 L 246.271 248.400 246.294 245.950 C 246.313 243.902,246.511 243.224,247.499 241.822 L 248.681 240.146 247.742 238.973 C 246.256 237.115,246.373 232.548,247.969 230.184 L 249.138 228.451 248.318 227.526 C 244.175 222.848,247.041 213.107,253.464 210.038 C 254.529 209.529,255.713 208.952,256.095 208.756 C 256.477 208.560,261.435 208.400,267.114 208.400 L 277.439 208.400 277.276 207.000 C 277.186 206.230,276.952 205.600,276.756 205.600 C 276.560 205.600,276.400 205.258,276.400 204.841 C 276.400 203.937,274.578 200.386,272.743 197.713 C 267.598 190.217,260.037 185.087,251.200 183.096 C 248.676 182.527,238.740 182.296,238.000 182.788 M299.796 210.500 C 300.130 213.628,300.779 220.915,301.606 230.800 C 302.057 236.190,302.634 242.445,302.889 244.700 L 303.352 248.800 308.076 248.800 L 312.800 248.800 312.793 246.700 C 312.789 245.545,312.619 243.013,312.415 241.074 C 311.538 232.742,311.796 215.668,312.815 214.584 L 313.739 213.600 322.227 213.600 C 331.728 213.600,331.200 213.779,331.200 210.567 L 331.200 208.800 315.408 208.800 L 299.615 208.800 299.796 210.500 " stroke="none" fill="#3c74a4" fill-rule="evenodd"></path><path id="path4" d="M178.601 0.283 C 176.842 0.368,175.231 0.609,175.021 0.819 C 174.812 1.028,173.416 1.200,171.920 1.200 C 170.373 1.200,169.200 1.373,169.200 1.600 C 169.200 1.820,168.246 2.000,167.080 2.000 C 165.914 2.000,164.789 2.170,164.580 2.377 C 164.371 2.585,163.264 2.796,162.120 2.848 C 160.976 2.899,160.132 3.089,160.244 3.271 C 160.356 3.452,159.547 3.600,158.447 3.600 C 157.347 3.600,156.348 3.760,156.227 3.956 C 156.009 4.309,154.560 4.633,151.301 5.059 C 150.367 5.181,149.703 5.442,149.825 5.640 C 149.947 5.838,149.417 6.000,148.647 6.000 C 147.877 6.000,147.136 6.180,147.000 6.400 C 146.864 6.620,146.223 6.800,145.576 6.800 C 144.929 6.800,144.400 6.980,144.400 7.200 C 144.400 7.420,143.871 7.600,143.224 7.600 C 142.577 7.600,141.948 7.761,141.826 7.958 C 141.705 8.155,140.929 8.407,140.103 8.518 C 138.054 8.795,137.273 8.993,136.945 9.322 C 136.792 9.475,136.274 9.600,135.795 9.600 C 135.315 9.600,134.310 9.909,133.561 10.286 C 132.813 10.663,131.938 11.013,131.617 11.063 C 131.068 11.148,129.889 11.641,128.305 12.447 C 127.923 12.641,127.158 12.800,126.605 12.800 C 126.052 12.800,125.599 12.935,125.597 13.100 C 125.593 13.511,123.609 14.400,122.697 14.400 C 122.288 14.400,122.064 14.580,122.200 14.800 C 122.336 15.020,122.070 15.200,121.610 15.200 C 120.696 15.200,118.800 16.293,118.800 16.821 C 118.800 17.001,119.795 18.285,121.012 19.674 C 126.142 25.533,131.148 34.397,132.830 40.600 C 133.821 44.258,134.059 45.281,134.596 48.200 C 134.920 49.960,135.189 52.975,135.193 54.900 L 135.200 58.400 142.500 58.394 C 146.515 58.391,150.054 58.227,150.363 58.031 C 150.846 57.726,150.855 55.845,150.424 44.937 C 150.148 37.932,149.984 30.220,150.061 27.800 L 150.200 23.400 151.600 22.719 C 154.071 21.516,172.292 21.579,173.275 22.794 C 174.253 24.001,174.212 26.423,173.191 27.720 C 172.386 28.745,172.355 28.749,165.423 28.874 C 157.182 29.023,157.926 28.539,158.254 33.539 L 158.520 37.600 162.831 37.600 C 167.592 37.600,168.818 38.249,168.787 40.754 C 168.761 42.954,167.954 43.381,163.398 43.606 C 158.111 43.866,158.422 43.358,158.691 51.309 L 158.919 58.019 165.511 57.909 L 172.103 57.800 172.182 56.000 C 172.225 55.010,172.632 52.940,173.087 51.400 C 174.459 46.758,177.433 36.594,179.408 29.800 C 180.431 26.280,181.464 23.165,181.702 22.877 C 183.110 21.181,187.191 20.737,189.794 21.997 L 191.441 22.795 193.576 29.497 C 194.750 33.184,196.116 37.460,196.612 39.000 C 197.107 40.540,198.263 44.230,199.181 47.200 C 200.098 50.170,201.018 53.013,201.225 53.519 C 201.745 54.792,201.694 56.546,201.120 57.120 C 200.747 57.493,201.398 57.600,204.051 57.600 L 207.463 57.600 205.731 55.793 C 203.382 53.341,203.547 50.775,206.165 49.059 C 207.554 48.150,207.734 48.189,210.389 49.993 C 215.441 53.424,221.200 52.908,221.200 49.025 C 221.200 46.975,219.997 45.893,214.950 43.401 C 204.546 38.264,201.752 31.070,207.797 24.984 C 214.036 18.703,230.626 20.456,228.412 27.163 C 227.498 29.932,225.809 30.404,222.400 28.842 C 218.403 27.011,213.200 28.239,213.200 31.013 C 213.200 32.409,214.406 33.329,219.460 35.786 C 224.737 38.353,226.767 40.036,228.255 43.076 C 230.388 47.436,229.250 54.086,225.971 56.421 C 224.012 57.815,224.877 58.000,233.359 58.000 L 241.470 58.000 241.732 43.721 C 242.032 27.326,242.448 28.815,237.562 28.806 C 233.334 28.799,232.600 28.254,232.600 25.123 C 232.600 21.536,232.447 21.572,246.336 21.855 C 260.038 22.134,259.800 22.068,259.800 25.569 C 259.800 28.768,259.127 29.200,254.138 29.200 L 250.000 29.200 249.960 38.500 C 249.938 43.615,249.803 50.103,249.660 52.918 C 249.411 57.823,249.433 58.043,250.200 58.193 C 250.640 58.279,256.328 58.444,262.840 58.561 L 274.681 58.772 274.974 48.286 C 275.777 19.502,274.445 22.586,285.900 22.991 C 290.355 23.148,294.000 23.157,294.000 23.010 C 294.000 22.509,292.858 21.600,292.229 21.600 C 291.883 21.600,291.600 21.420,291.600 21.200 C 291.600 20.980,291.375 20.799,291.100 20.798 C 290.436 20.796,286.794 18.939,287.017 18.716 C 287.113 18.621,286.293 18.298,285.196 17.999 C 284.098 17.700,283.200 17.308,283.200 17.128 C 283.200 16.947,282.840 16.800,282.400 16.800 C 281.960 16.800,281.600 16.620,281.600 16.400 C 281.600 16.180,281.321 16.000,280.981 16.000 C 280.640 16.000,279.616 15.640,278.706 15.200 C 277.795 14.760,276.814 14.400,276.525 14.400 C 276.236 14.400,276.000 14.220,276.000 14.000 C 276.000 13.780,275.640 13.600,275.200 13.600 C 274.760 13.600,274.400 13.390,274.400 13.133 C 274.400 12.877,274.295 12.771,274.167 12.899 C 274.039 13.027,272.464 12.587,270.667 11.920 C 268.870 11.254,266.995 10.618,266.500 10.508 C 266.005 10.397,265.600 10.148,265.600 9.953 C 265.600 9.759,265.071 9.600,264.424 9.600 C 263.777 9.600,263.144 9.433,263.017 9.228 C 262.891 9.023,261.800 8.733,260.594 8.582 C 259.387 8.431,258.400 8.149,258.400 7.954 C 258.400 7.759,257.948 7.600,257.395 7.600 C 256.842 7.600,256.077 7.442,255.695 7.249 C 254.539 6.665,252.196 6.000,251.295 6.000 C 250.829 6.000,250.336 5.820,250.200 5.600 C 250.064 5.380,249.243 5.200,248.376 5.200 C 247.509 5.200,246.800 5.020,246.800 4.800 C 246.800 4.580,245.990 4.400,245.000 4.400 C 244.010 4.400,243.200 4.220,243.200 4.000 C 243.200 3.780,242.401 3.600,241.424 3.600 C 240.447 3.600,239.536 3.420,239.400 3.200 C 239.264 2.980,238.364 2.800,237.400 2.800 C 236.436 2.800,235.536 2.620,235.400 2.400 C 235.264 2.180,234.184 2.000,233.000 2.000 C 231.816 2.000,230.736 1.820,230.600 1.600 C 230.464 1.380,229.229 1.200,227.856 1.200 C 226.408 1.200,225.153 0.993,224.866 0.706 C 224.382 0.222,186.974 -0.119,178.601 0.283 M72.400 15.964 C 71.850 16.120,74.280 16.248,77.800 16.248 C 81.320 16.248,83.750 16.120,83.200 15.964 C 82.650 15.808,80.220 15.680,77.800 15.680 C 75.380 15.680,72.950 15.808,72.400 15.964 M68.000 16.655 C 67.670 16.760,66.230 17.218,64.800 17.671 C 60.291 19.100,55.004 21.913,51.479 24.757 C 49.710 26.184,45.313 30.687,44.406 32.000 C 43.874 32.770,43.316 33.490,43.166 33.600 C 42.868 33.818,41.719 35.791,39.928 39.160 C 36.349 45.891,34.521 57.677,36.025 64.323 C 37.064 68.919,37.300 69.871,37.679 71.000 C 40.695 80.003,48.199 89.445,55.600 93.553 C 66.119 99.391,76.690 101.273,86.200 98.999 C 87.740 98.630,89.497 98.234,90.105 98.118 C 90.713 98.003,91.308 97.749,91.429 97.554 C 91.549 97.359,91.918 97.200,92.249 97.200 C 92.993 97.200,98.150 94.759,98.333 94.320 C 98.407 94.144,98.642 94.000,98.855 94.000 C 100.755 94.000,109.218 86.193,112.297 81.600 C 115.604 76.668,119.236 68.208,118.687 66.714 C 118.584 66.431,118.374 66.740,118.222 67.400 C 112.806 90.920,87.913 104.713,64.425 97.208 C 45.173 91.057,32.426 69.310,36.753 50.000 C 36.975 49.010,37.315 47.480,37.508 46.600 C 40.469 33.145,53.859 20.476,68.800 16.995 C 70.329 16.638,70.634 16.479,69.800 16.473 C 69.140 16.467,68.330 16.549,68.000 16.655 M86.600 17.009 C 102.095 20.425,113.533 31.603,118.310 48.000 C 118.535 48.770,118.737 49.072,118.759 48.671 C 118.888 46.361,114.050 35.403,111.894 33.123 C 111.622 32.835,110.928 31.970,110.352 31.200 C 109.007 29.403,105.797 26.193,104.000 24.848 C 103.230 24.272,102.362 23.575,102.071 23.300 C 101.781 23.025,101.389 22.800,101.200 22.800 C 101.011 22.800,100.607 22.550,100.302 22.244 C 98.501 20.443,87.820 16.336,85.208 16.440 C 84.654 16.462,85.280 16.718,86.600 17.009 M300.017 27.536 C 299.237 30.434,298.944 30.525,290.911 30.352 L 283.800 30.200 283.686 34.289 C 283.554 39.043,283.165 38.689,288.739 38.889 C 293.356 39.055,295.035 41.268,292.749 44.175 C 291.905 45.246,291.856 45.256,287.656 45.128 L 283.416 45.000 283.139 47.200 C 282.987 48.410,282.804 51.580,282.731 54.245 L 282.600 59.089 288.200 59.342 C 291.280 59.481,296.590 59.704,300.000 59.836 L 306.200 60.078 305.125 59.139 C 302.319 56.687,302.190 56.046,302.296 45.067 C 302.371 37.359,302.537 34.626,303.038 32.867 C 304.197 28.794,304.195 28.220,303.024 27.453 C 302.449 27.075,301.802 26.875,301.589 27.007 C 301.375 27.139,301.200 26.967,301.200 26.624 C 301.200 25.419,300.426 26.016,300.017 27.536 M185.520 35.100 C 185.157 36.585,184.489 39.240,184.035 41.000 C 182.881 45.473,182.732 45.200,186.320 45.200 C 190.347 45.200,190.525 45.004,189.527 41.660 C 188.791 39.189,188.491 38.143,187.624 35.000 C 186.695 31.636,186.363 31.652,185.520 35.100 M311.035 34.252 C 310.427 35.839,309.892 51.574,310.405 52.812 C 311.454 55.344,315.452 56.062,317.582 54.100 C 320.490 51.422,320.341 37.200,317.405 37.200 C 317.046 37.200,316.864 37.020,317.000 36.800 C 317.136 36.580,317.006 36.400,316.712 36.400 C 316.417 36.400,315.924 36.050,315.615 35.621 C 315.307 35.193,314.930 34.919,314.779 35.013 C 314.627 35.107,314.092 34.827,313.590 34.392 C 312.482 33.431,311.374 33.370,311.035 34.252 M328.076 45.953 C 327.775 46.139,327.440 47.853,327.229 50.282 C 326.825 54.932,325.966 57.217,323.850 59.273 L 322.391 60.690 324.167 60.933 C 328.009 61.460,337.023 61.665,336.308 61.210 C 334.499 60.058,332.800 55.166,332.800 51.111 C 332.800 49.133,329.233 45.238,328.076 45.953 M119.073 53.200 C 119.199 55.070,119.370 56.675,119.451 56.767 C 119.751 57.102,119.510 51.769,119.182 50.800 C 118.976 50.193,118.933 51.135,119.073 53.200 M181.439 51.537 C 181.317 51.735,180.960 52.865,180.646 54.048 C 180.332 55.232,179.949 56.515,179.794 56.900 C 179.534 57.551,180.020 57.600,186.765 57.600 L 194.015 57.600 193.744 56.500 C 193.594 55.895,193.186 54.500,192.836 53.400 L 192.200 51.400 186.931 51.289 C 184.033 51.227,181.561 51.339,181.439 51.537 M119.274 60.044 C 119.233 60.838,119.111 62.368,119.002 63.444 C 118.818 65.257,118.834 65.303,119.221 64.068 C 119.451 63.335,119.574 61.805,119.494 60.668 C 119.390 59.190,119.327 59.012,119.274 60.044 M55.320 61.600 C 55.320 62.810,55.395 63.305,55.487 62.700 C 55.578 62.095,55.578 61.105,55.487 60.500 C 55.395 59.895,55.320 60.390,55.320 61.600 M17.789 115.900 C 17.634 116.395,17.348 116.800,17.153 116.800 C 16.959 116.800,16.800 117.053,16.800 117.362 C 16.800 117.671,16.414 118.706,15.943 119.662 C 15.472 120.618,14.947 121.760,14.777 122.200 C 13.785 124.761,13.372 125.600,13.102 125.600 C 12.936 125.600,12.797 125.915,12.794 126.300 C 12.787 127.118,11.873 129.861,11.474 130.259 C 11.323 130.410,11.200 130.775,11.200 131.071 C 11.200 131.367,10.863 132.372,10.450 133.304 C 9.432 135.608,8.400 139.089,8.400 140.222 C 8.400 140.734,8.220 141.264,8.000 141.400 C 7.780 141.536,7.600 142.267,7.600 143.024 C 7.600 143.781,7.420 144.400,7.200 144.400 C 6.980 144.400,6.800 144.839,6.800 145.376 C 6.800 145.913,6.639 146.452,6.442 146.574 C 6.245 146.695,5.990 147.471,5.875 148.297 C 5.760 149.124,5.454 150.610,5.197 151.600 C 4.939 152.590,4.636 154.165,4.524 155.100 C 4.411 156.035,4.158 156.800,3.960 156.800 C 3.762 156.800,3.600 157.599,3.600 158.576 C 3.600 159.553,3.420 160.464,3.200 160.600 C 2.980 160.736,2.800 161.647,2.800 162.624 C 2.800 163.601,2.620 164.400,2.400 164.400 C 2.178 164.400,2.000 165.467,2.000 166.800 C 2.000 168.133,1.822 169.200,1.600 169.200 C 1.376 169.200,1.200 170.307,1.200 171.720 C 1.200 173.203,0.994 174.446,0.700 174.740 C -0.029 175.469,-0.029 224.131,0.700 224.860 C 1.002 225.162,1.200 226.437,1.200 228.080 C 1.200 229.627,1.373 230.800,1.600 230.800 C 1.820 230.800,2.000 231.779,2.000 232.976 C 2.000 234.173,2.180 235.264,2.400 235.400 C 2.620 235.536,2.800 236.537,2.800 237.624 C 2.800 238.711,2.980 239.600,3.200 239.600 C 3.420 239.600,3.600 240.410,3.600 241.400 C 3.600 242.390,3.780 243.200,4.000 243.200 C 4.220 243.200,4.400 244.010,4.400 245.000 C 4.400 245.990,4.580 246.800,4.800 246.800 C 5.020 246.800,5.200 247.509,5.200 248.376 C 5.200 249.243,5.380 250.064,5.600 250.200 C 5.820 250.336,6.000 250.829,6.000 251.295 C 6.000 252.196,6.665 254.539,7.249 255.695 C 7.442 256.077,7.600 256.842,7.600 257.395 C 7.600 257.948,7.780 258.400,8.000 258.400 C 8.220 258.400,8.408 258.985,8.418 259.700 C 8.427 260.415,8.695 261.720,9.012 262.600 C 9.329 263.480,9.591 264.515,9.594 264.900 C 9.597 265.285,9.758 265.600,9.951 265.600 C 10.145 265.600,10.494 266.275,10.727 267.100 C 11.483 269.770,12.500 272.434,12.690 272.244 C 12.791 272.142,12.921 255.800,12.979 235.929 C 13.036 215.839,13.283 196.071,13.535 191.400 C 13.784 186.780,14.174 179.040,14.402 174.200 C 15.195 157.390,16.649 137.251,18.304 120.161 C 18.476 118.379,18.495 116.489,18.344 115.961 L 18.071 115.000 17.789 115.900 M381.778 120.100 C 381.924 122.575,382.204 125.950,382.400 127.600 C 382.596 129.250,382.951 133.300,383.189 136.600 C 383.426 139.900,383.793 144.850,384.003 147.600 C 384.709 156.825,385.184 164.538,385.603 173.600 C 385.832 178.550,386.222 186.110,386.471 190.400 C 386.725 194.781,386.977 214.155,387.047 234.600 C 387.188 276.228,387.120 272.490,387.716 271.200 C 387.970 270.650,388.306 270.107,388.463 269.993 C 388.620 269.878,388.822 269.338,388.912 268.793 C 389.100 267.663,389.489 266.517,390.029 265.505 C 390.233 265.123,390.400 264.459,390.400 264.029 C 390.400 263.599,390.567 263.144,390.772 263.017 C 390.977 262.891,391.267 261.802,391.418 260.598 C 391.568 259.394,391.851 258.508,392.046 258.628 C 392.240 258.749,392.400 258.207,392.400 257.424 C 392.400 256.641,392.580 256.000,392.800 256.000 C 393.020 256.000,393.200 255.381,393.200 254.624 C 393.200 253.867,393.380 253.136,393.600 253.000 C 393.820 252.864,394.000 252.234,394.000 251.600 C 394.000 250.966,394.180 250.336,394.400 250.200 C 394.620 250.064,394.800 249.333,394.800 248.576 C 394.800 247.819,394.980 247.200,395.200 247.200 C 395.420 247.200,395.600 246.300,395.600 245.200 C 395.600 244.100,395.780 243.200,396.000 243.200 C 396.220 243.200,396.400 242.379,396.400 241.376 C 396.400 240.373,396.548 239.644,396.729 239.756 C 396.911 239.868,397.101 239.028,397.153 237.889 C 397.205 236.750,397.398 235.724,397.582 235.609 C 397.900 235.410,398.156 233.589,398.625 228.200 C 398.739 226.880,399.051 225.368,399.317 224.840 C 400.147 223.190,399.980 174.800,399.144 174.800 C 398.955 174.800,398.800 173.551,398.800 172.024 C 398.800 170.497,398.620 169.136,398.400 169.000 C 398.180 168.864,398.000 167.773,398.000 166.576 C 398.000 165.379,397.820 164.400,397.600 164.400 C 397.380 164.400,397.200 163.601,397.200 162.624 C 397.200 161.647,397.020 160.736,396.800 160.600 C 396.580 160.464,396.400 159.553,396.400 158.576 C 396.400 157.599,396.220 156.800,396.000 156.800 C 395.780 156.800,395.600 156.001,395.600 155.024 C 395.600 154.047,395.420 153.136,395.200 153.000 C 394.980 152.864,394.800 152.144,394.800 151.400 C 394.800 150.656,394.640 149.948,394.444 149.827 C 394.249 149.706,393.987 149.021,393.863 148.304 C 393.343 145.290,393.090 144.400,392.755 144.400 C 392.560 144.400,392.400 143.871,392.400 143.224 C 392.400 142.577,392.240 141.948,392.044 141.827 C 391.849 141.706,391.584 140.931,391.455 140.104 C 391.100 137.807,390.945 137.231,389.832 134.062 C 389.264 132.446,388.800 130.871,388.800 130.562 C 388.800 130.253,388.620 130.000,388.400 130.000 C 388.180 130.000,388.000 129.651,388.000 129.224 C 388.000 128.797,387.856 128.358,387.679 128.249 C 387.503 128.140,387.110 127.139,386.807 126.025 C 386.504 124.911,386.108 124.000,385.928 124.000 C 385.747 124.000,385.600 123.550,385.600 123.000 C 385.600 122.450,385.420 122.000,385.200 122.000 C 384.980 122.000,384.800 121.735,384.800 121.412 C 384.800 121.089,384.440 120.183,384.000 119.400 C 383.560 118.617,383.200 117.711,383.200 117.388 C 383.200 117.065,383.020 116.800,382.800 116.800 C 382.580 116.800,382.400 116.530,382.400 116.200 C 382.400 115.870,382.200 115.600,381.956 115.600 C 381.642 115.600,381.590 116.912,381.778 120.100 M94.073 158.299 C 98.404 158.364,105.604 158.364,110.073 158.300 C 114.543 158.235,111.000 158.182,102.200 158.182 C 93.400 158.182,89.743 158.235,94.073 158.299 M83.598 160.002 C 83.127 160.664,82.824 161.519,82.925 161.902 C 83.090 162.533,83.112 162.529,83.154 161.862 C 83.179 161.456,83.572 160.601,84.027 159.962 C 84.482 159.323,84.764 158.800,84.654 158.800 C 84.544 158.800,84.069 159.341,83.598 160.002 M142.800 158.925 C 142.800 158.994,143.385 159.579,144.100 160.225 L 145.400 161.400 144.225 160.100 C 143.130 158.888,142.800 158.616,142.800 158.925 M120.656 160.400 C 120.830 160.730,121.091 161.720,121.236 162.600 L 121.500 164.200 121.550 162.776 C 121.577 161.994,121.317 161.004,120.970 160.576 C 120.624 160.149,120.483 160.070,120.656 160.400 M137.043 161.433 C 136.703 162.318,136.740 164.316,137.100 164.538 C 137.265 164.640,137.400 163.841,137.400 162.762 C 137.400 160.581,137.387 160.535,137.043 161.433 M138.522 166.171 C 139.625 167.182,142.476 167.648,142.943 166.893 C 143.047 166.724,142.410 166.654,141.527 166.738 C 140.347 166.851,139.586 166.659,138.660 166.017 L 137.400 165.142 138.522 166.171 M85.541 166.901 C 85.743 167.103,86.333 167.201,86.854 167.119 C 87.655 166.993,87.598 166.937,86.487 166.752 C 85.693 166.621,85.319 166.679,85.541 166.901 M117.800 166.800 L 116.600 167.105 117.676 167.153 C 118.268 167.179,118.864 167.020,119.000 166.800 C 119.136 166.580,119.192 166.421,119.124 166.447 C 119.056 166.473,118.460 166.632,117.800 166.800 M102.680 175.578 C 114.765 175.745,118.885 175.924,119.260 176.300 C 119.535 176.575,119.944 176.800,120.169 176.800 C 120.394 176.800,120.133 176.485,119.589 176.100 C 118.688 175.462,117.173 175.398,102.600 175.378 L 86.600 175.356 102.680 175.578 M142.600 176.257 C 144.637 178.064,145.387 178.591,144.602 177.663 C 144.166 177.148,143.447 176.541,143.004 176.314 C 142.562 176.087,142.380 176.062,142.600 176.257 M83.265 177.817 C 82.473 179.556,82.695 181.442,83.839 182.678 L 84.878 183.800 84.039 182.646 C 83.129 181.394,82.942 179.230,83.632 177.939 C 83.870 177.495,83.989 177.056,83.897 176.964 C 83.805 176.872,83.521 177.256,83.265 177.817 M137.043 178.633 C 136.703 179.519,136.740 181.516,137.100 181.737 C 137.265 181.838,137.401 181.038,137.403 179.960 C 137.406 177.787,137.390 177.728,137.043 178.633 M121.293 180.000 C 121.293 180.770,121.375 181.085,121.476 180.700 C 121.576 180.315,121.576 179.685,121.476 179.300 C 121.375 178.915,121.293 179.230,121.293 180.000 M120.663 182.180 C 120.533 182.519,119.836 183.156,119.113 183.596 C 118.391 184.037,118.022 184.398,118.294 184.399 C 118.958 184.401,121.466 182.132,121.149 181.816 C 121.011 181.678,120.793 181.842,120.663 182.180 M144.404 182.392 C 144.171 182.828,143.489 183.451,142.890 183.776 C 142.290 184.102,141.985 184.375,142.211 184.384 C 142.842 184.409,144.345 183.250,144.811 182.379 C 145.040 181.951,145.138 181.600,145.028 181.600 C 144.918 181.600,144.637 181.957,144.404 182.392 M138.703 183.500 C 139.221 183.995,139.860 184.395,140.122 184.388 C 140.385 184.381,140.240 184.176,139.800 183.932 C 139.360 183.688,138.721 183.288,138.380 183.044 C 138.040 182.800,138.185 183.005,138.703 183.500 M83.836 194.431 C 82.060 196.541,83.354 201.600,85.670 201.600 C 85.883 201.600,85.414 200.994,84.628 200.253 C 82.789 198.518,82.641 196.326,84.236 194.431 C 84.805 193.754,85.181 193.200,85.071 193.200 C 84.961 193.200,84.405 193.754,83.836 194.431 M142.600 193.655 C 143.040 193.892,143.821 194.561,144.336 195.143 C 145.114 196.023,145.197 196.052,144.832 195.321 C 144.363 194.379,142.887 193.192,142.211 193.212 C 141.985 193.219,142.160 193.418,142.600 193.655 M137.043 195.833 C 136.712 196.695,136.747 198.498,137.106 199.062 C 137.268 199.316,137.400 198.551,137.400 197.362 C 137.400 194.971,137.390 194.928,137.043 195.833 M121.293 197.200 C 121.293 197.970,121.375 198.285,121.476 197.900 C 121.576 197.515,121.576 196.885,121.476 196.500 C 121.375 196.115,121.293 196.430,121.293 197.200 M119.663 200.257 C 118.927 200.996,118.498 201.600,118.708 201.600 C 119.185 201.600,121.200 199.615,121.200 199.145 C 121.200 198.703,121.235 198.677,119.663 200.257 M144.663 199.380 C 144.533 199.719,143.836 200.356,143.113 200.796 C 142.391 201.237,142.081 201.598,142.425 201.599 C 143.125 201.600,145.466 199.332,145.120 198.987 C 144.998 198.865,144.793 199.042,144.663 199.380 M299.223 210.100 C 299.236 211.035,299.408 212.520,299.607 213.400 C 299.906 214.728,299.946 214.473,299.844 211.900 L 299.720 208.800 315.460 208.800 L 331.200 208.800 331.260 210.700 L 331.320 212.600 331.560 210.800 C 331.894 208.295,332.704 208.413,315.100 208.406 L 299.200 208.400 299.223 210.100 M94.127 209.500 C 98.707 209.564,106.087 209.564,110.527 209.499 C 114.967 209.435,111.220 209.383,102.200 209.383 C 93.180 209.383,89.547 209.435,94.127 209.500 M138.525 210.700 C 138.106 211.085,137.960 211.272,138.203 211.116 C 138.445 210.960,139.083 210.656,139.622 210.441 C 140.240 210.194,140.359 210.041,139.944 210.025 C 139.584 210.011,138.945 210.315,138.525 210.700 M121.082 213.221 C 121.208 214.199,121.375 215.075,121.455 215.167 C 121.781 215.542,121.560 212.555,121.221 212.021 C 120.984 211.646,120.935 212.070,121.082 213.221 M137.043 212.633 C 136.703 213.518,136.740 215.516,137.100 215.738 C 137.265 215.840,137.400 215.041,137.400 213.962 C 137.400 211.781,137.387 211.735,137.043 212.633 M330.878 213.100 C 330.819 213.482,328.785 213.600,322.270 213.600 L 313.739 213.600 312.815 214.584 C 311.796 215.668,311.538 232.742,312.415 241.074 C 312.619 243.013,312.789 245.538,312.793 246.684 L 312.800 248.767 320.554 248.884 L 328.308 249.000 328.536 246.800 C 328.662 245.590,328.960 241.720,329.199 238.200 C 329.438 234.680,329.806 230.699,330.017 229.354 C 330.228 228.009,330.400 225.812,330.400 224.474 C 330.400 223.135,330.589 221.159,330.820 220.082 C 331.051 219.006,331.176 216.882,331.098 215.363 C 331.020 213.843,330.921 212.825,330.878 213.100 M82.836 214.669 C 82.798 215.586,84.576 218.000,85.290 218.000 C 85.520 218.000,85.236 217.629,84.659 217.175 C 84.082 216.721,83.444 215.776,83.241 215.075 C 82.967 214.127,82.863 214.023,82.836 214.669 M300.053 217.323 C 300.024 218.601,300.174 221.301,300.388 223.323 C 300.601 225.346,300.962 229.070,301.189 231.600 C 302.071 241.401,302.285 243.132,302.347 241.000 C 302.401 239.166,301.241 225.158,300.442 218.000 L 300.107 215.000 300.053 217.323 M119.926 216.888 C 119.335 217.499,118.988 218.000,119.156 218.000 C 119.535 218.000,121.399 216.045,121.168 215.889 C 121.076 215.826,120.516 216.276,119.926 216.888 M143.946 216.816 C 143.366 217.467,143.024 218.000,143.184 218.000 C 143.493 218.000,144.485 216.940,144.963 216.100 C 145.415 215.305,145.081 215.540,143.946 216.816 M94.127 218.300 C 98.707 218.364,106.087 218.364,110.527 218.299 C 114.967 218.235,111.220 218.183,102.200 218.183 C 93.180 218.183,89.547 218.235,94.127 218.300 M140.500 218.276 C 140.885 218.376,141.515 218.376,141.900 218.276 C 142.285 218.175,141.970 218.093,141.200 218.093 C 140.430 218.093,140.115 218.175,140.500 218.276 M302.474 245.400 C 302.464 246.720,302.611 248.160,302.800 248.600 C 303.265 249.682,303.281 246.816,302.823 244.600 C 302.505 243.062,302.491 243.093,302.474 245.400 " stroke="none" fill="#69b7d2" fill-rule="evenodd"></path></g></svg>