<?xml version="1.0" standalone="no"?>
<!DOCTYPE svg PUBLIC "-//W3C//DTD SVG 20010904//EN"
 "http://www.w3.org/TR/2001/REC-SVG-20010904/DTD/svg10.dtd">
<svg version="1.0" xmlns="http://www.w3.org/2000/svg"
 width="512.000000pt" height="512.000000pt" viewBox="0 0 512.000000 512.000000"
 preserveAspectRatio="xMidYMid meet">

<g transform="translate(0.000000,512.000000) scale(0.100000,-0.100000)"
fill="#000000" stroke="none">
<path d="M900 5111 c-166 -24 -301 -92 -420 -211 -146 -147 -209 -288 -218
-490 -3 -68 -9 -118 -16 -122 -6 -4 -29 -8 -52 -8 -23 0 -62 -3 -88 -6 -74
-11 -77 -21 -60 -194 12 -128 16 -147 36 -163 12 -10 31 -16 42 -13 12 2 81 8
153 11 l133 7 81 -76 c62 -59 103 -87 173 -120 121 -59 197 -76 333 -76 135 0
250 29 362 93 73 41 191 146 242 215 l24 33 460 10 c771 15 1803 -13 2555 -71
69 -5 168 -12 220 -15 52 -3 109 -8 126 -10 21 -4 38 0 53 12 19 16 23 36 35
163 18 183 17 186 -84 196 l-70 7 29 33 c31 35 36 54 50 204 16 174 -22 218
-200 227 -117 7 -102 36 -124 -242 -9 -109 -17 -200 -18 -201 -1 -1 -35 0 -75
3 -66 5 -71 7 -52 20 37 26 50 69 61 202 10 120 9 133 -8 168 -35 72 -141 103
-225 66 -61 -28 -75 -61 -86 -208 -10 -127 -4 -175 24 -206 17 -18 16 -19 -27
-19 -24 0 -67 3 -95 6 l-51 6 23 23 c32 32 43 83 46 220 3 135 -4 158 -65 196
-26 16 -46 19 -105 17 -65 -3 -75 -6 -103 -34 -39 -40 -48 -82 -49 -231 0
-118 1 -122 27 -154 l28 -32 -115 6 c-63 4 -133 7 -155 7 l-40 0 3 96 3 96 52
-2 c29 -2 57 -2 63 -1 18 2 25 30 14 52 -9 15 -22 19 -65 19 l-55 0 0 61 0 61
94 -7 c87 -7 95 -6 105 12 14 28 3 62 -23 67 -61 13 -244 15 -259 3 -13 -10
-17 -49 -24 -230 l-8 -219 -160 1 c-87 1 -161 3 -163 5 -1 2 0 87 4 189 l7
186 56 3 56 3 3 37 c4 48 -2 50 -188 46 l-145 -3 -3 -34 c-4 -42 8 -51 71 -51
l47 0 0 -72 c0 -40 -3 -124 -7 -185 l-6 -113 -111 0 c-80 1 -106 3 -93 11 47
27 63 138 28 195 -12 20 -46 45 -100 73 -68 35 -81 46 -81 66 0 38 46 44 142
20 21 -6 29 -2 42 18 29 44 -3 73 -94 84 -92 11 -174 -32 -189 -97 -16 -76 16
-132 98 -172 74 -35 101 -57 101 -83 0 -49 -75 -60 -130 -20 -42 31 -55 31
-74 3 -22 -31 -20 -45 10 -73 l27 -25 -46 0 c-36 0 -45 3 -41 14 6 16 -120
424 -136 440 -16 16 -88 13 -105 -5 -18 -18 -138 -425 -130 -439 4 -6 -28 -10
-84 -10 l-91 0 0 90 0 90 54 0 c64 0 85 17 68 55 -10 23 -17 25 -72 25 l-60 0
0 55 0 55 88 0 c48 0 92 4 98 8 18 12 24 42 14 63 -10 17 -22 19 -130 19 -65
0 -131 -5 -145 -10 l-27 -10 7 -225 7 -225 -99 0 -100 0 -7 83 c-30 357 -325
637 -696 661 -41 2 -100 1 -130 -3z m272 -224 c256 -93 402 -353 347 -619 -56
-268 -330 -460 -599 -419 -272 42 -460 261 -460 534 0 155 61 291 177 397 61
56 172 114 248 129 79 16 210 6 287 -22z m2913 -191 c23 -35 7 -253 -20 -273
-25 -18 -60 -16 -80 4 -14 14 -16 35 -13 141 3 108 5 125 22 138 31 22 73 18
91 -10z m-1671 -61 c10 -33 20 -68 22 -77 5 -16 -2 -18 -46 -18 -49 0 -52 1
-46 23 3 12 14 50 22 85 9 35 20 60 24 55 3 -4 14 -35 24 -68z m2077 33 c7
-14 9 -58 4 -131 -7 -98 -10 -113 -32 -135 -18 -18 -30 -22 -51 -17 -15 3 -31
11 -37 16 -11 11 -8 200 4 245 13 51 89 66 112 22z m402 -31 c15 -17 18 -32
13 -72 -3 -27 -8 -78 -11 -112 -9 -83 -21 -98 -80 -96 -26 1 -49 3 -51 5 -4 4
13 218 22 276 5 32 6 32 47 26 24 -4 50 -15 60 -27z m-2429 -175 c2 -4 7 -24
11 -45 l7 -37 -91 0 c-50 0 -91 3 -91 8 0 4 5 24 11 45 l10 37 69 0 c38 0 71
-3 74 -8z"/>
<path d="M726 4389 c-22 -31 -21 -92 2 -111 14 -11 37 -13 122 -7 158 10 346
10 374 -1 21 -8 28 -6 41 13 20 29 19 80 -2 106 -16 20 -21 21 -52 10 -25 -9
-88 -10 -230 -5 -108 4 -206 9 -217 12 -15 4 -27 -1 -38 -17z"/>
<path d="M1077 3072 c-22 -25 -21 -48 3 -72 19 -19 33 -20 223 -20 224 0 247
5 247 59 0 49 -8 51 -240 51 -197 0 -218 -2 -233 -18z"/>
<path d="M1770 3070 c-11 -11 -20 -27 -20 -35 0 -18 35 -55 53 -55 24 0 57 31
57 55 0 24 -33 55 -57 55 -7 0 -22 -9 -33 -20z"/>
<path d="M2952 2980 c-169 -45 -336 -176 -415 -327 -67 -128 -77 -191 -77
-475 l0 -248 -911 0 -911 0 -29 -29 c-28 -28 -29 -33 -29 -126 0 -89 2 -98 25
-120 l24 -25 1931 0 1931 0 24 25 c23 22 25 31 25 120 0 93 -1 98 -29 126
l-29 29 -240 0 -240 0 -6 73 c-13 155 -11 354 3 371 11 13 34 16 127 16 l114
0 0 30 0 30 -203 0 -203 0 17 -192 c10 -106 20 -223 24 -260 l6 -68 -50 0 -51
0 0 248 c0 212 -3 258 -20 325 -30 120 -82 209 -175 302 -90 91 -198 152 -315
180 -89 20 -228 18 -318 -5z m685 -551 c55 -26 93 -88 93 -148 0 -34 -6 -49
-29 -72 l-29 -29 -217 0 c-239 0 -262 5 -285 59 -27 66 18 157 94 192 34 15
66 19 185 19 127 0 150 -3 188 -21z m68 -394 c18 -18 25 -35 25 -65 l0 -40
-282 2 -283 3 -3 31 c-2 19 5 40 18 57 24 31 38 32 318 35 182 2 183 2 207
-23z"/>
<path d="M1077 2852 c-22 -25 -21 -48 3 -72 19 -19 33 -20 228 -20 190 0 210
2 225 18 20 22 22 63 5 80 -9 9 -73 12 -228 12 -197 0 -218 -2 -233 -18z"/>
<path d="M1770 2850 c-11 -11 -20 -27 -20 -35 0 -18 35 -55 53 -55 24 0 57 31
57 55 0 24 -33 55 -57 55 -7 0 -22 -9 -33 -20z"/>
<path d="M4010 2730 l0 -130 30 0 30 0 0 130 0 130 -30 0 -30 0 0 -130z"/>
<path d="M1077 2632 c-22 -25 -21 -48 3 -72 19 -19 33 -20 229 -20 229 0 241
3 241 59 0 49 -8 51 -240 51 -197 0 -218 -2 -233 -18z"/>
<path d="M1787 2643 c-25 -6 -40 -49 -27 -74 15 -28 57 -35 80 -14 25 23 25
50 0 75 -21 21 -22 21 -53 13z"/>
<path d="M1080 2420 c-25 -25 -26 -52 -2 -73 16 -15 48 -17 233 -17 231 0 239
2 239 51 0 56 -12 59 -241 59 -196 0 -210 -1 -229 -20z"/>
<path d="M1764 2405 c-15 -23 -15 -27 0 -50 28 -42 96 -24 96 25 0 49 -68 67
-96 25z"/>
<path d="M816 692 c181 -175 370 -305 619 -427 250 -123 477 -195 750 -237
200 -31 550 -31 750 0 276 43 500 114 760 242 244 119 481 286 650 459 l59 61
-1844 0 -1845 -1 101 -97z"/>
</g>
</svg>
